<?xml version="1.0" encoding="UTF-8"?>
<svg id="Layer_1" xmlns="http://www.w3.org/2000/svg" version="1.1" viewBox="0 0 841.9 595.3">
  <!-- Generator: Adobe Illustrator 29.7.0, SVG Export Plug-In . SVG Version: 2.1.1 Build 138)  -->
  <defs>
    <style>
      .st0 {
        fill: #00f889;
      }

      .st1 {
        fill: #20319d;
      }
    </style>
  </defs>
  <g>
    <polygon class="st1" points="220.4 360.9 220.4 348.1 268.2 286.3 220.8 286.3 220.8 269.6 293.1 269.6 293.1 282.5 245.4 344.3 294.4 344.3 294.4 360.9 220.4 360.9"/>
    <path class="st1" d="M309.3,286.6c-2.9,0-5.3-1-7.3-3-2-2-3-4.4-3-7.3s1-5.3,3-7.3c2-2,4.4-3,7.3-3s5.3,1,7.3,3c2,2,3,4.4,3,7.3s-1,5.3-3,7.3c-2,2-4.4,3-7.3,3M299.9,293.3h18.7v67.7h-18.7v-67.7Z"/>
    <rect class="st1" x="328.8" y="266.2" width="18.7" height="94.7"/>
    <polygon class="st1" points="384.6 360.9 384.6 269.6 410.7 269.6 437.8 334 438.2 334 465.2 269.6 491.1 269.6 491.1 360.9 472 360.9 472 296.4 471.6 296.4 445.4 360.9 429.1 360.9 403 296.4 402.6 296.4 402.6 360.9 384.6 360.9"/>
    <path class="st1" d="M535.4,362.3c-7.4,0-13.8-1.4-19.2-4.3-5.5-2.9-9.7-7-12.7-12.2-3-5.3-4.5-11.5-4.5-18.7s1.5-13.3,4.5-18.6c3-5.3,7.2-9.3,12.7-12.2,5.5-2.9,12-4.3,19.4-4.3s13.8,1.4,19.2,4.3c5.4,2.9,9.6,6.9,12.5,12.2,2.9,5.3,4.4,11.5,4.4,18.7s-1.5,13.4-4.4,18.7c-2.9,5.3-7.1,9.4-12.6,12.2-5.5,2.9-11.9,4.3-19.2,4.3M535.4,346.1c5.6,0,10-1.7,13-5.1,3-3.4,4.5-8.1,4.5-13.9s-1.5-10.5-4.5-13.8c-3-3.3-7.3-5-13-5s-10.1,1.7-13.1,5c-3,3.3-4.6,8-4.6,13.8s1.5,10.5,4.6,13.9c3,3.4,7.4,5.1,13.1,5.1"/>
    <path class="st1" d="M582.2,360.9v-49.2h-9.2v-18.5h18.9v11.1h4.7c2.6-3.9,5.9-6.9,9.9-9.1,4-2.1,8.9-3.2,14.9-3.2,9.4,0,16.7,2.6,21.8,7.7,5.1,5.1,7.7,12,7.7,20.7v40.5h-18.7v-37c0-5-1.3-8.7-4-11.3-2.7-2.6-6.6-3.9-11.7-3.9s-9,1.3-11.7,3.9c-2.7,2.6-4,6.4-4,11.3v37h-18.7Z"/>
    <path class="st1" d="M692.2,362.3c-7.3,0-13.6-1.4-19.1-4.3-5.4-2.9-9.6-7-12.5-12.3-2.9-5.3-4.4-11.6-4.4-18.8s1.4-13.4,4.3-18.7c2.9-5.2,6.9-9.2,12.2-12.1,5.3-2.8,11.6-4.2,18.8-4.2s13.1,1.4,18.2,4.1c5.1,2.7,9,6.6,11.7,11.6,2.7,5,4.1,11.1,4.1,18v6.3h-51.3c.8,5,2.7,8.9,5.8,11.5,3.1,2.6,7.1,3.9,12.2,3.9s7.1-.7,9.5-2c2.3-1.4,4-3.4,5-6.2h18.7c-1.5,7.2-5.2,12.9-10.9,17-5.8,4.1-13.2,6.1-22.1,6.1M674.6,319.6h32.9c-.6-4.3-2.3-7.5-5-9.6-2.7-2.1-6.4-3.2-10.9-3.2s-8.3,1.1-11.2,3.3c-2.9,2.2-4.8,5.4-5.8,9.6"/>
    <path class="st1" d="M731.2,388v-15h14.9l5.3-12.6-29.2-67.1h19.8l18.9,45.6h.5l18.5-45.6h19.2l-29,67.7-5.5,13.1c-1.9,4.4-4.1,7.9-6.5,10.3-2.5,2.4-6.3,3.7-11.4,3.7h-15.4,0Z"/>
  </g>
  <g>
    <path class="st0" d="M42.8,207.3c5.6,4.8,10.3,7.7,15.6,11.4,26.4,18.1,59.2,28.2,87.1,44,14.6,8.2,22.5,16,26.8,32.5,1.2,4.6,2.5,9.9,2,14.6-9.3-15.1-25-21.8-41-27.8-22-8.3-46.1-13.7-66.8-25.1-16.9-9.3-21.4-18.9-23.2-37.9v-1.1c0,0-.5-10.5-.5-10.5h0Z"/>
    <path class="st0" d="M179.4,338.1s-3.2-4.5-4.4-5.9c-22.3-26.2-91.8-17.5-111.7-41.4-7.4-9-7.1-20.4-8-31.4,0,0,1.9,1.4,4,2.8,1.9,1.3,4,2.5,5.1,3.2,22.4,13.7,48.8,18.3,73,27.9,20.4,8.1,41.5,20.1,42,44.9"/>
    <path class="st0" d="M67.8,305.6c2.2,1.6,6.4,3.7,9.9,5.2,26.1,11.8,78.9,10.9,98.2,32.4,4.4,4.9,6.8,11.3,7.7,17.7,0,0-7.2-4.9-9.7-6.3-22.3-12-50-10.2-74.7-14.9-11-2.1-23.6-4.4-28.9-15.6-1-2.1-1.8-5.2-2.2-9.1-.3-2.9-.3-9.5-.3-9.5"/>
  </g>
</svg>